<svg width="28" height="28" viewBox="0 0 28 28" fill="none" xmlns="http://www.w3.org/2000/svg">
<path d="M14 28C16.7689 28 19.4757 27.1789 21.778 25.6406C24.0803 24.1022 25.8747 21.9157 26.9343 19.3576C27.9939 16.7994 28.2712 13.9845 27.731 11.2687C27.1908 8.55301 25.8574 6.05845 23.8995 4.10051C21.9416 2.14258 19.447 0.809205 16.7313 0.269012C14.0155 -0.271181 11.2006 0.00606596 8.64243 1.06569C6.08427 2.12532 3.89776 3.91973 2.35942 6.22202C0.821085 8.52431 0 11.2311 0 14C0 17.713 1.475 21.274 4.1005 23.8995C6.72601 26.525 10.287 28 14 28ZM7.1848 10.0576C7.35085 9.65733 7.63545 9.31748 8.00035 9.08372C8.36525 8.84996 8.79296 8.73351 9.226 8.75C10.8108 8.75 12.3956 8.75 13.986 8.75C15.5764 8.75 17.1668 8.75 18.746 8.75C19.1732 8.73189 19.5961 8.84157 19.9607 9.06501C20.3253 9.28845 20.615 9.61551 20.7928 10.0044C20.8284 10.0538 20.8516 10.111 20.8606 10.1712C20.8695 10.2315 20.8638 10.293 20.8441 10.3505C20.8243 10.4081 20.7911 10.4602 20.7471 10.5022C20.7031 10.5443 20.6496 10.5752 20.5912 10.5924L14.28 13.888C14.2003 13.9337 14.1101 13.9577 14.0182 13.9577C13.9263 13.9577 13.8361 13.9337 13.7564 13.888L7.3612 10.5644C7.3113 10.549 7.26573 10.5221 7.22816 10.4858C7.19059 10.4495 7.16207 10.4049 7.1449 10.3556C7.12773 10.3063 7.1224 10.2536 7.12933 10.2018C7.13626 10.1501 7.15526 10.1007 7.1848 10.0576ZM7.602 12.1604C9.59 13.2001 11.5761 14.2361 13.5604 15.2684C13.6939 15.3475 13.8462 15.3892 14.0014 15.3892C14.1566 15.3892 14.3089 15.3475 14.4424 15.2684C16.4173 14.2324 18.3951 13.2057 20.3756 12.1884C20.4335 12.1562 20.4957 12.1327 20.5604 12.1184C20.6131 12.1003 20.6695 12.0958 20.7245 12.1052C20.7794 12.1146 20.8311 12.1376 20.8749 12.1722C20.9186 12.2067 20.953 12.2517 20.9748 12.3029C20.9967 12.3542 21.0053 12.4101 21 12.4656C21 13.7853 21 15.1041 21 16.422C21.016 16.764 21.0038 17.1068 20.9636 17.4468C20.8841 17.9546 20.6238 18.4167 20.2308 18.748C19.8378 19.0793 19.3384 19.2575 18.8244 19.25C17.5252 19.25 16.226 19.25 14.9296 19.25H9.2204C8.73479 19.261 8.25963 19.1082 7.87153 18.8161C7.48343 18.524 7.20502 18.1097 7.0812 17.64C7.03009 17.4576 7.00279 17.2694 7 17.08C7 15.5568 7 14.0336 7 12.5076C7 12.124 7.2464 11.9784 7.602 12.1604Z" fill="#F37021"/>
<path d="M7.602 12.1604C9.59 13.2001 11.5761 14.2361 13.5604 15.2684C13.6939 15.3475 13.8462 15.3892 14.0014 15.3892C14.1566 15.3892 14.3089 15.3475 14.4424 15.2684C16.4173 14.2324 18.3951 13.2057 20.3756 12.1884C20.4335 12.1562 20.4957 12.1327 20.5604 12.1184C20.6131 12.1003 20.6695 12.0958 20.7245 12.1052C20.7794 12.1146 20.8311 12.1376 20.8749 12.1722C20.9186 12.2067 20.953 12.2517 20.9748 12.3029C20.9967 12.3542 21.0053 12.4101 21 12.4656V16.422C21.016 16.764 21.0038 17.1068 20.9636 17.4468C20.8841 17.9546 20.6238 18.4167 20.2308 18.748C19.8378 19.0793 19.3384 19.2575 18.8244 19.25H14.9296H9.2204C8.73479 19.261 8.25963 19.1082 7.87153 18.8161C7.48343 18.524 7.20502 18.1097 7.0812 17.64C7.03009 17.4576 7.00279 17.2694 7 17.08V12.5076C7 12.124 7.2464 11.9784 7.602 12.1604Z" fill="white"/>
<path d="M7.1848 10.0576C7.35085 9.65733 7.63545 9.31748 8.00035 9.08372C8.36525 8.84996 8.79296 8.73351 9.226 8.75H13.986H18.746C19.1732 8.73189 19.5961 8.84157 19.9607 9.06501C20.3253 9.28845 20.615 9.61551 20.7928 10.0044C20.8284 10.0538 20.8516 10.111 20.8606 10.1712C20.8695 10.2315 20.8638 10.293 20.8441 10.3505C20.8243 10.4081 20.7911 10.4602 20.7471 10.5022C20.7031 10.5443 20.6496 10.5752 20.5912 10.5924L14.28 13.888C14.2003 13.9337 14.1101 13.9577 14.0182 13.9577C13.9263 13.9577 13.8361 13.9337 13.7564 13.888L7.3612 10.5644C7.3113 10.549 7.26573 10.5221 7.22816 10.4858C7.19059 10.4495 7.16207 10.4049 7.1449 10.3556C7.12773 10.3063 7.1224 10.2536 7.12933 10.2018C7.13626 10.1501 7.15526 10.1007 7.1848 10.0576Z" fill="white"/>
</svg>
